<?xml version="1.0" encoding="UTF-8" standalone="no"?>
<!DOCTYPE svg PUBLIC "-//W3C//DTD SVG 1.1//EN" "http://www.w3.org/Graphics/SVG/1.1/DTD/svg11.dtd">
<!-- 由 Microsoft Visio, SVG Export 生成 architecture.svg Page-1 -->
<svg xmlns="http://www.w3.org/2000/svg" xmlns:xlink="http://www.w3.org/1999/xlink" xmlns:ev="http://www.w3.org/2001/xml-events"
		xmlns:v="http://schemas.microsoft.com/visio/2003/SVGExtensions/" width="10.6248in" height="6.82523in"
		viewBox="0 0 764.985 491.416" xml:space="preserve" color-interpolation-filters="sRGB" class="st30">
	<v:documentProperties v:langID="2052" v:metric="true" v:viewMarkup="false"/>

	<style type="text/css">
	<![CDATA[
		.st1 {fill:none;stroke:none;stroke-linecap:round;stroke-linejoin:round;stroke-width:0.75}
		.st2 {fill:#3f3f3f;font-family:Arial;font-size:1.99999em;font-weight:bold}
		.st3 {fill:#da4e31;stroke:none;stroke-linecap:butt;stroke-width:7.29492}
		.st4 {fill:url(#grad0-21);stroke:none;stroke-linecap:butt;stroke-width:5.04864}
		.st5 {marker-end:url(#mrkr2-30);stroke:#00b0f0;stroke-linecap:butt;stroke-width:2.16}
		.st6 {fill:#00b0f0;fill-opacity:1;stroke:#00b0f0;stroke-opacity:1;stroke-width:0.46153846153846}
		.st7 {marker-end:url(#mrkr2-30);stroke:#00b0f0;stroke-dasharray:4.32,2.16;stroke-linecap:butt;stroke-width:2.16}
		.st8 {fill:#000000;font-family:宋体;font-size:1.5em}
		.st9 {fill:#ffffff;stroke:#000000;stroke-linecap:round;stroke-linejoin:round;stroke-width:0.75}
		.st10 {fill:#3f3f3f;font-family:Arial;font-size:1.00001em;font-weight:bold}
		.st11 {fill:#0091e2;stroke:none;stroke-linecap:butt;stroke-width:4.98047}
		.st12 {fill:#3fa3f0;stroke:none;stroke-linecap:butt;stroke-width:8.21918}
		.st13 {fill:#78b9eb;stroke:none;stroke-linecap:butt;stroke-width:8.21918}
		.st14 {fill:#00ccb3;stroke:none;stroke-linecap:butt;stroke-width:8.21918}
		.st15 {fill:#5aaae7;stroke:none;stroke-linecap:butt;stroke-width:8.21918}
		.st16 {fill:#bddbff;stroke:none;stroke-linecap:butt;stroke-width:8.21918}
		.st17 {fill:#3d9ae2;stroke:none;stroke-linecap:butt;stroke-width:8.21918}
		.st18 {fill:#f1f2f2;stroke:none;stroke-linecap:butt;stroke-width:8.21918}
		.st19 {fill:#64798a;stroke:none;stroke-linecap:butt;stroke-width:1.24512}
		.st20 {fill:#3a556a;stroke:none;stroke-linecap:butt;stroke-width:1.24512}
		.st21 {fill:#ebf0f3;stroke:none;stroke-linecap:butt;stroke-width:1.24512}
		.st22 {fill:#44c4a1;stroke:none;stroke-linecap:butt;stroke-width:1.24512}
		.st23 {fill:#2f4859;stroke:none;stroke-linecap:butt;stroke-width:1.24512}
		.st24 {fill:#d5d6db;stroke:none;stroke-linecap:butt;stroke-width:1.24512}
		.st25 {fill:#cccccc;stroke:none;stroke-linecap:butt;stroke-width:1.19531}
		.st26 {fill:#adadad;stroke:none;stroke-linecap:butt;stroke-width:1.19531}
		.st27 {fill:#ffffff;stroke:none;stroke-linecap:butt;stroke-width:1.19531}
		.st28 {fill:#3b3b3b;stroke:none;stroke-linecap:butt;stroke-width:1.19531}
		.st29 {fill:#a2dfe9;stroke:none;stroke-linecap:butt;stroke-width:1.19531}
		.st30 {fill:none;fill-rule:evenodd;font-size:12px;overflow:visible;stroke-linecap:square;stroke-miterlimit:3}
	]]>
	</style>

	<defs id="Patterns_And_Gradients">
		<linearGradient id="grad0-21" x1="0" y1="0" x2="1" y2="0" gradientTransform="rotate(90 0.5 0.5)">
			<stop offset="0" stop-color="#f05a28" stop-opacity="1"/>
			<stop offset="1" stop-color="#fbca0a" stop-opacity="1"/>
		</linearGradient>
	</defs>
	<defs id="Markers">
		<g id="lend2">
			<path d="M 1 1 L 0 0 L 1 -1 L 1 1 " style="stroke:none"/>
		</g>
		<marker id="mrkr2-30" class="st6" v:arrowType="2" v:arrowSize="2" v:setback="2.16667" refX="-2.1666666666667" orient="auto"
				markerUnits="strokeWidth" overflow="visible">
			<use xlink:href="#lend2" transform="scale(-2.1666666666667,-2.1666666666667) "/>
		</marker>
	</defs>
	<g v:mID="0" v:index="1" v:groupContext="foregroundPage">
		<v:userDefs>
			<v:ud v:nameU="ShowU" v:val="VT0(1):5"/>
		</v:userDefs>
		<title>页-1</title>
		<v:pageProperties v:drawingScale="0.0393701" v:pageScale="0.0393701" v:drawingUnits="24" v:shadowOffsetX="8.50394"
				v:shadowOffsetY="-8.50394"/>
		<v:layer v:name="网站图形状" v:index="0"/>
		<v:layer v:name="连接线" v:index="1"/>
		<g id="shape241-1" v:mID="241" v:groupContext="shape" transform="translate(292.975,-205.464)">
			<title>工作表.241</title>
			<desc>HTTP Proxy</desc>
			<v:textBlock v:margins="rect(4,4,4,4)" v:tabSpace="42.5197"/>
			<v:textRect cx="99.5877" cy="467.618" width="199.18" height="47.5963"/>
			<rect x="0" y="443.82" width="199.175" height="47.5963" class="st1"/>
			<text x="31.57" y="474.82" class="st2" v:langID="2052"><v:paragraph v:horizAlign="1"/><v:tabList/>HTTP Proxy</text>		</g>
		<g id="group247-4" transform="translate(52.5147,-275.534)" v:mID="247" v:groupContext="group">
			<title>工作表.247</title>
			<g id="shape248-5" v:mID="248" v:groupContext="shape">
				<title>工作表.248</title>
				<path d="M65.45 360.52 C29.3 360.52 0 389.82 0 425.97 C0 462.11 29.3 491.42 65.45 491.42 C101.59 491.42 130.9 462.11
							 130.9 425.97 C130.9 389.82 101.59 360.52 65.45 360.52 ZM65.45 483.01 C55.16 483.01 46.83 476.14 46.83
							 467.67 L84.07 467.67 C84.07 476.14 75.73 483.01 65.45 483.01 ZM96.21 462.59 L34.69 462.59 L34.69 451.44
							 L96.21 451.44 L96.21 462.59 L96.21 462.59 L96.21 462.59 ZM95.98 445.69 L34.86 445.69 C34.66 445.46 34.45
							 445.23 34.26 444.99 C27.96 437.35 26.48 433.35 25.04 429.29 C25.01 429.15 32.67 430.85 38.1 432.07 C38.1
							 432.07 40.9 432.72 44.98 433.46 C41.06 428.87 38.73 423.02 38.73 417.04 C38.73 403.92 48.79 392.46 45.16
							 383.19 C48.7 383.48 52.48 390.65 52.73 401.86 C56.49 396.67 58.06 387.19 58.06 381.38 C58.06 375.36
							 62.02 368.37 65.99 368.13 C62.45 373.96 66.91 378.95 70.86 391.35 C72.35 396 72.16 403.83 73.3 408.8
							 C73.68 398.48 75.46 383.43 82 378.23 C79.12 384.78 82.43 392.97 84.7 396.9 C88.36 403.26 90.57 408.07
							 90.57 417.17 C90.57 423.27 88.32 429.02 84.52 433.51 C88.84 432.7 91.82 431.97 91.82 431.97 L105.86
							 429.23 C105.86 429.23 103.82 437.62 95.98 445.69 Z" class="st3"/>
			</g>
		</g>
		<g id="shape251-7" v:mID="251" v:groupContext="shape" transform="translate(18.5022,-408.437)">
			<title>工作表.251</title>
			<desc>Prometheus</desc>
			<v:textBlock v:margins="rect(4,4,4,4)" v:tabSpace="42.5197"/>
			<v:textRect cx="99.5877" cy="467.618" width="199.18" height="47.5963"/>
			<rect x="0" y="443.82" width="199.175" height="47.5963" class="st1"/>
			<text x="30.24" y="474.82" class="st2" v:langID="2052"><v:paragraph v:horizAlign="1"/><v:tabList/>Prometheus</text>		</g>
		<g id="shape253-10" v:mID="253" v:groupContext="shape" transform="translate(547.435,-409.262)">
			<title>工作表.253</title>
			<desc>Traffic Detector</desc>
			<v:textBlock v:margins="rect(4,4,4,4)" v:tabSpace="42.5197"/>
			<v:textRect cx="99.5877" cy="467.618" width="199.18" height="47.5963"/>
			<rect x="0" y="443.82" width="199.175" height="47.5963" class="st1"/>
			<text x="10.9" y="474.82" class="st2" v:langID="2052"><v:paragraph v:horizAlign="1"/><v:tabList/>Traffic Detector</text>		</g>
		<g id="shape255-13" v:mID="255" v:groupContext="shape" transform="translate(302.543,-19.4979)">
			<title>工作表.255</title>
			<desc>Web Server</desc>
			<v:textBlock v:margins="rect(4,4,4,4)" v:tabSpace="42.5197"/>
			<v:textRect cx="92.2284" cy="467.618" width="184.46" height="47.5963"/>
			<rect x="0" y="443.82" width="184.457" height="47.5963" class="st1"/>
			<text x="26.2" y="474.82" class="st2" v:langID="2052"><v:paragraph v:horizAlign="1"/><v:tabList/>Web Server</text>		</g>
		<g id="group257-16" transform="translate(18.375,-19.4979)" v:mID="257" v:groupContext="group">
			<title>工作表.257</title>
			<g id="group245-17" transform="translate(33.6822,-53.8869)" v:mID="245" v:groupContext="group">
				<title>工作表.245</title>
				<g id="shape246-18" v:mID="246" v:groupContext="shape">
					<title>工作表.246</title>
					<path d="M120.26 418.29 C120.04 416.09 119.68 413.57 118.96 410.75 C118.24 407.98 117.16 404.91 115.57 401.74
								 C113.98 398.56 111.93 395.28 109.26 392.07 C108.21 390.81 107.06 389.59 105.83 388.4 C107.67 381.08
								 103.6 374.73 103.6 374.73 C96.57 374.3 92.09 376.93 90.44 378.12 C90.15 378.01 89.89 377.87 89.61
								 377.76 C88.42 377.29 87.19 376.82 85.89 376.42 C84.63 376.03 83.33 375.67 82 375.34 C80.66 375.02
								 79.33 374.77 77.96 374.55 C77.71 374.51 77.49 374.48 77.24 374.44 C74.17 364.63 65.37 360.52 65.37
								 360.52 C55.53 366.76 53.69 375.49 53.69 375.49 C53.69 375.49 53.66 375.67 53.58 375.99 C53.04 376.14
								 52.5 376.32 51.96 376.46 C51.2 376.68 50.45 376.97 49.73 377.25 C48.97 377.54 48.25 377.83 47.49
								 378.16 C46.01 378.8 44.53 379.53 43.09 380.32 C41.68 381.11 40.31 381.98 38.98 382.88 L38.62 382.74
								 C24.99 377.54 12.91 383.78 12.91 383.78 C11.79 398.28 18.35 407.4 19.65 409.06 C19.33 409.96 19.04
								 410.86 18.75 411.76 C17.74 415.04 16.98 418.4 16.51 421.89 C16.44 422.4 16.37 422.9 16.33 423.41
								 C3.71 429.65 0 442.38 0 442.38 C10.49 454.46 22.75 455.21 22.75 455.21 L22.79 455.18 C24.34 457.95
								 26.14 460.59 28.16 463.07 C29.03 464.12 29.89 465.09 30.83 466.07 C27.01 477.03 31.37 486.12 31.37
								 486.12 C43.05 486.55 50.73 481 52.36 479.73 C53.51 480.13 54.7 480.49 55.89 480.78 C59.5 481.72
								 63.18 482.26 66.85 482.4 C67.75 482.44 68.69 482.47 69.59 482.44 L70.89 482.44 L71.47 482.4 L71.47
								 482.44 C76.99 490.3 86.65 491.42 86.65 491.42 C93.54 484.17 93.93 476.96 93.93 475.41 L93.93 475.3
								 L93.93 475.08 L93.93 474.76 C95.38 473.75 96.75 472.67 98.04 471.48 C100.78 468.99 103.2 466.14
								 105.22 463.07 L105.76 462.21 C113.55 462.64 119.07 457.38 119.07 457.38 C117.77 449.26 113.15 445.3
								 112.18 444.54 C111.21 443.78 112.14 444.5 112.07 444.47 C112 444.43 112 444.4 112 444.4 C111.96
								 444.36 111.89 444.32 111.82 444.29 C111.85 443.78 111.89 443.31 111.93 442.81 C112 441.94 112 441.04
								 112 440.18 L112 439.02 L112 438.81 L111.96 438.27 L111.93 437.54 C111.93 437.29 111.89 437.08 111.85
								 436.86 C111.82 436.64 111.82 436.39 111.78 436.17 L111.71 435.49 L111.6 434.8 C111.46 433.9 111.31
								 433.04 111.1 432.14 C110.27 428.64 108.9 425.32 107.13 422.33 C105.33 419.33 103.09 416.7 100.53
								 414.47 C98.01 412.23 95.16 410.43 92.2 409.09 C89.21 407.76 86.11 406.89 83.01 406.5 C81.46 406.28
								 79.91 406.21 78.36 406.25 L77.2 406.25 L76.62 406.28 C76.41 406.28 76.19 406.32 76.01 406.32 C75.22
								 406.39 74.43 406.5 73.67 406.64 C70.57 407.22 67.65 408.34 65.09 409.89 C62.53 411.44 60.29 413.35
								 58.49 415.51 C56.68 417.68 55.28 420.09 54.3 422.58 C53.33 425.07 52.79 427.66 52.65 430.15 C52.61
								 430.77 52.61 431.41 52.61 432.03 L52.61 432.5 L52.65 433 C52.68 433.29 52.68 433.61 52.72 433.9
								 C52.83 435.16 53.08 436.39 53.4 437.54 C54.09 439.89 55.17 442.02 56.5 443.82 C57.84 445.62 59.46
								 447.1 61.16 448.29 C62.85 449.44 64.69 450.27 66.49 450.81 C68.3 451.35 70.1 451.57 71.79 451.57
								 L72.73 451.57 C72.84 451.57 72.95 451.57 73.06 451.54 C73.24 451.54 73.42 451.5 73.6 451.5 C73.63
								 451.5 73.7 451.5 73.74 451.46 L73.92 451.43 C74.03 451.43 74.14 451.39 74.25 451.39 C74.46 451.35
								 74.64 451.32 74.86 451.28 C75.07 451.25 75.25 451.21 75.44 451.14 C75.83 451.07 76.19 450.92 76.55
								 450.81 C77.27 450.56 78 450.27 78.61 449.95 C79.26 449.62 79.83 449.23 80.41 448.87 C80.56 448.76
								 80.74 448.65 80.88 448.51 C81.46 448.04 81.56 447.17 81.1 446.6 C80.7 446.09 79.98 445.95 79.4 446.27
								 L78.97 446.49 C78.46 446.74 77.96 446.96 77.42 447.14 C76.88 447.32 76.3 447.46 75.72 447.57 C75.44
								 447.6 75.15 447.64 74.82 447.68 C74.68 447.68 74.53 447.71 74.35 447.71 L73.49 447.71 C73.31 447.71
								 73.13 447.71 72.95 447.68 L72.73 447.68 C72.66 447.68 72.55 447.68 72.48 447.64 C72.3 447.6 72.15
								 447.6 71.97 447.57 C70.64 447.39 69.31 446.99 68.04 446.41 C66.74 445.84 65.52 445.04 64.4 444.04
								 C63.28 443.03 62.31 441.84 61.55 440.47 C60.8 439.09 60.25 437.58 60 435.99 C59.89 435.2 59.82 434.37
								 59.86 433.58 C59.86 433.36 59.89 433.15 59.89 432.93 L59.89 432.64 C59.89 432.53 59.93 432.42 59.93
								 432.32 C59.97 431.88 60.04 431.45 60.11 431.02 C60.72 427.56 62.45 424.17 65.12 421.61 C65.81 420.96
								 66.53 420.38 67.29 419.84 C68.04 419.3 68.87 418.83 69.74 418.43 C70.6 418.04 71.47 417.71 72.41
								 417.46 C73.31 417.21 74.25 417.06 75.22 416.95 C75.69 416.92 76.16 416.88 76.66 416.88 L77.78 416.88
								 L78.18 416.92 C79.22 416.99 80.23 417.14 81.24 417.39 C83.26 417.82 85.24 418.58 87.08 419.59 C90.76
								 421.64 93.9 424.82 95.81 428.64 C96.78 430.55 97.47 432.6 97.79 434.73 C97.86 435.27 97.94 435.81
								 97.97 436.35 L98.01 436.75 L98.04 437.15 L98.04 438.7 C98.04 438.95 98.01 439.38 98.01 439.64 C97.97
								 440.21 97.9 440.83 97.83 441.4 C97.76 441.98 97.65 442.56 97.54 443.13 C97.43 443.71 97.29 444.29
								 97.14 444.83 C96.85 445.95 96.49 447.06 96.06 448.18 C95.2 450.35 94.04 452.44 92.67 454.35 C89.89
								 458.17 86.11 461.27 81.78 463.25 C79.62 464.23 77.35 464.95 75 465.31 C73.85 465.53 72.66 465.63
								 71.47 465.67 L69.67 465.67 C69.02 465.67 68.4 465.63 67.75 465.56 C65.23 465.38 62.74 464.91 60.29
								 464.23 C57.87 463.54 55.53 462.57 53.29 461.42 C48.86 459.04 44.86 455.79 41.76 451.86 C40.21 449.91
								 38.84 447.79 37.72 445.59 C36.6 443.39 35.7 441.04 35.05 438.7 C34.4 436.32 34 433.9 33.82 431.45
								 L33.79 430.98 L33.79 428.93 L33.79 428.67 L33.79 427.77 C33.82 426.58 33.93 425.32 34.08 424.09
								 C34.22 422.87 34.44 421.61 34.69 420.38 C34.94 419.15 35.23 417.93 35.59 416.7 C36.28 414.29 37.14
								 411.94 38.15 409.74 C40.21 405.34 42.87 401.41 46.08 398.28 C46.88 397.48 47.71 396.76 48.57 396.04
								 C49.44 395.36 50.34 394.71 51.28 394.09 C52.18 393.48 53.15 392.94 54.12 392.43 C54.59 392.18 55.1
								 391.93 55.6 391.71 L56.36 391.39 L57.12 391.06 C58.13 390.63 59.17 390.27 60.25 389.95 C60.51 389.87
								 60.8 389.8 61.05 389.69 C61.3 389.62 61.59 389.55 61.84 389.48 C62.38 389.33 62.92 389.19 63.46
								 389.08 C63.72 389.01 64 388.97 64.29 388.9 C64.58 388.83 64.83 388.79 65.12 388.72 C65.41 388.68
								 65.66 388.61 65.95 388.58 L66.35 388.5 L66.78 388.43 C67.07 388.4 67.32 388.36 67.61 388.32 C67.93
								 388.29 68.22 388.25 68.55 388.22 C68.8 388.18 69.23 388.14 69.49 388.11 C69.67 388.07 69.88 388.07
								 70.06 388.04 L70.46 388 L70.64 387.96 L70.86 387.96 C71.18 387.93 71.47 387.93 71.79 387.89 L72.26
								 387.86 L72.62 387.86 C72.87 387.86 73.16 387.82 73.42 387.82 C74.46 387.78 75.54 387.78 76.59 387.82
								 C78.68 387.89 80.74 388.14 82.72 388.5 C86.72 389.26 90.47 390.52 93.9 392.22 C97.32 393.88 100.35
								 395.93 103.02 398.17 C103.2 398.31 103.34 398.46 103.52 398.6 C103.67 398.75 103.85 398.89 103.99
								 399.03 C104.32 399.32 104.61 399.61 104.93 399.9 C105.26 400.19 105.54 400.48 105.83 400.76 C106.12
								 401.05 106.41 401.34 106.7 401.67 C107.82 402.86 108.86 404.05 109.8 405.27 C111.67 407.69 113.19
								 410.14 114.38 412.45 L114.59 412.88 L114.81 413.31 C114.96 413.6 115.1 413.89 115.21 414.18 C115.35
								 414.47 115.46 414.72 115.6 415.01 C115.71 415.3 115.86 415.55 115.97 415.84 C116.4 416.92 116.83
								 417.96 117.16 418.94 C117.7 420.52 118.09 421.93 118.42 423.16 C118.53 423.66 118.99 423.99 119.5
								 423.91 C120.04 423.88 120.44 423.45 120.44 422.9 C120.47 421.61 120.44 420.06 120.26 418.29 Z"
							class="st4"/>
				</g>
			</g>
			<g id="shape249-22" v:mID="249" v:groupContext="shape">
				<title>工作表.249</title>
				<desc>Grafana</desc>
				<v:textBlock v:margins="rect(4,4,4,4)" v:tabSpace="42.5197"/>
				<v:textRect cx="99.5877" cy="467.618" width="199.18" height="47.5963"/>
				<rect x="0" y="443.82" width="199.175" height="47.5963" class="st1"/>
				<text x="54.24" y="474.82" class="st2" v:langID="2052"><v:paragraph v:horizAlign="1"/><v:tabList/>Grafana</text>			</g>
		</g>
		<g id="shape268-25" v:mID="268" v:groupContext="shape" transform="translate(-373.453,287.666) rotate(-90)">
			<title>人工信息.268</title>
			<v:userDefs>
				<v:ud v:nameU="visVersion" v:val="VT0(15):26"/>
			</v:userDefs>
			<path d="M0 491.42 L67.15 491.42" class="st5"/>
		</g>
		<g id="shape269-31" v:mID="269" v:groupContext="shape" transform="translate(-98.3172,202.06) rotate(-90) scale(-1,1)">
			<title>下拉箭头 1</title>
			<v:userDefs>
				<v:ud v:nameU="visVersion" v:val="VT0(15):26"/>
			</v:userDefs>
			<path d="M0 491.42 L88.94 491.42" class="st7"/>
		</g>
		<g id="shape270-36" v:mID="270" v:groupContext="shape" transform="translate(-98.3172,25.233) rotate(-90) scale(-1,1)">
			<title>下拉箭头 1.270</title>
			<v:userDefs>
				<v:ud v:nameU="visVersion" v:val="VT0(15):26"/>
			</v:userDefs>
			<path d="M0 491.42 L41.82 491.42" class="st7"/>
		</g>
		<g id="shape271-41" v:mID="271" v:groupContext="shape" transform="translate(403.495,-437.431)">
			<title>工作表.271</title>
			<desc>①</desc>
			<v:textBlock v:margins="rect(4,4,4,4)" v:tabSpace="42.5197"/>
			<v:textRect cx="17.7323" cy="473.611" width="35.47" height="35.6106"/>
			<rect x="0" y="455.806" width="35.4646" height="35.6106" class="st1"/>
			<text x="4" y="479.01" class="st8" v:langID="2052"><v:paragraph/><v:tabList/>①</text>		</g>
		<g id="shape280-44" v:mID="280" v:groupContext="shape" transform="translate(313.953,-339.813) scale(-1,1)">
			<title>普通箭头.280</title>
			<v:userDefs>
				<v:ud v:nameU="visVersion" v:val="VT0(15):26"/>
				<v:ud v:nameU="ArrowType" v:prompt="" v:val="VT0(2):26"/>
			</v:userDefs>
			<path d="M0 491.42 L11.34 480.08 L11.34 485.75 L130.67 485.75 L130.67 491.42 L130.67 497.09 L11.34 497.09 L11.34 502.75
						 L0 491.42 Z" class="st9"/>
		</g>
		<g id="shape281-46" v:mID="281" v:groupContext="shape" transform="translate(154.646,-295.876)">
			<title>工作表.281</title>
			<desc>HTTP Request</desc>
			<v:textBlock v:margins="rect(4,4,4,4)" v:tabSpace="42.5197"/>
			<v:textRect cx="92.2284" cy="467.618" width="184.46" height="47.5963"/>
			<rect x="0" y="443.82" width="184.457" height="47.5963" class="st1"/>
			<text x="51.22" y="471.22" class="st10" v:langID="2052"><v:paragraph v:horizAlign="1"/><v:tabList/>HTTP Request</text>		</g>
		<g id="shape283-49" v:mID="283" v:groupContext="shape" transform="translate(228.985,-341.85)">
			<title>工作表.283</title>
			<desc>③</desc>
			<v:textBlock v:margins="rect(4,4,4,4)" v:tabSpace="42.5197"/>
			<v:textRect cx="17.7323" cy="473.611" width="35.47" height="35.6106"/>
			<rect x="0" y="455.806" width="35.4646" height="35.6106" class="st1"/>
			<text x="4" y="479.01" class="st8" v:langID="2052"><v:paragraph/><v:tabList/>③</text>		</g>
		<g id="shape284-52" v:mID="284" v:groupContext="shape" transform="translate(122.717,-220.864)">
			<title>工作表.284</title>
			<desc>④</desc>
			<v:textBlock v:margins="rect(4,4,4,4)" v:tabSpace="42.5197"/>
			<v:textRect cx="17.7323" cy="473.611" width="35.47" height="35.6106"/>
			<rect x="0" y="455.806" width="35.4646" height="35.6106" class="st1"/>
			<text x="4" y="479.01" class="st8" v:langID="2052"><v:paragraph/><v:tabList/>④</text>		</g>
		<g id="group313-55" transform="translate(573.292,-77.2088)" v:mID="313" v:groupContext="group">
			<title>工作表.313</title>
			<g id="shape314-56" v:mID="314" v:groupContext="shape">
				<title>工作表.314</title>
				<path d="M155.25 421.54 C154.81 421.19 150.89 418.2 142.46 418.2 C140.28 418.2 138.03 418.42 135.85 418.79 C134.25
							 407.68 125.02 402.3 124.65 402.02 L122.4 400.7 L120.95 402.81 C119.14 405.64 117.75 408.84 116.96 412.1
							 C115.43 418.42 116.37 424.37 119.57 429.46 C115.72 431.64 109.47 432.15 108.16 432.22 L5.01 432.22 C2.32
							 432.22 0.14 434.4 0.14 437.09 C0 446.1 1.52 455.1 4.64 463.6 C8.2 472.9 13.5 479.8 20.33 484.01 C28.03
							 488.73 40.6 491.42 54.76 491.42 C61.14 491.42 67.54 490.83 73.86 489.67 C82.66 488.08 91.08 485.02 98.84
							 480.59 C105.24 476.89 110.98 472.17 115.85 466.65 C124.06 457.42 128.92 447.11 132.48 437.96 C132.99
							 437.96 133.42 437.96 133.93 437.96 C142.87 437.96 148.39 434.4 151.43 431.34 C153.47 429.46 154.99 427.13
							 156.09 424.51 L156.74 422.63 L155.25 421.54 ZM91.4 429.24 L105.2 429.24 C105.85 429.24 106.44 428.73
							 106.44 428.01 L106.44 415.65 C106.44 415 105.93 414.42 105.2 414.42 L91.4 414.42 C90.75 414.42 90.16
							 414.93 90.16 415.65 L90.16 428.01 C90.24 428.73 90.75 429.24 91.4 429.24 ZM72.15 393.87 L85.96 393.87
							 C86.61 393.87 87.19 393.36 87.19 392.64 L87.19 380.28 C87.19 379.63 86.61 379.05 85.96 379.05 L72.15
							 379.05 C71.5 379.05 70.92 379.56 70.92 380.28 L70.92 392.64 C70.92 393.29 71.49 393.87 72.15 393.87
							 ZM72.15 411.59 L85.96 411.59 C86.61 411.59 87.19 411 87.19 410.35 L87.19 398 C87.19 397.35 86.61 396.77
							 85.96 396.77 L72.15 396.77 C71.5 396.77 70.92 397.28 70.92 398 L70.92 410.35 C70.92 411.02 71.49 411.59
							 72.15 411.59 ZM53.05 411.59 L66.85 411.59 C67.5 411.59 68.09 411 68.09 410.35 L68.09 398 C68.09 397.35
							 67.58 396.77 66.85 396.77 L53.05 396.77 C52.4 396.77 51.81 397.28 51.81 398 L51.81 410.35 C51.81 411.02
							 52.32 411.59 53.05 411.59 ZM33.65 411.59 L47.45 411.59 C48.1 411.59 48.69 411 48.69 410.35 L48.69 398
							 C48.69 397.35 48.18 396.77 47.45 396.77 L33.65 396.77 C33 396.77 32.41 397.28 32.41 398 L32.41 410.35
							 C32.49 411.02 33 411.59 33.65 411.59 ZM72.15 429.24 L85.96 429.24 C86.61 429.24 87.19 428.73 87.19 428.01
							 L87.19 415.65 C87.19 415 86.68 414.42 85.96 414.42 L72.15 414.42 C71.5 414.42 70.92 414.93 70.92 415.65
							 L70.92 428.01 C70.92 428.73 71.49 429.24 72.15 429.24 ZM53.05 429.24 L66.85 429.24 C67.5 429.24 68.09
							 428.73 68.09 428.01 L68.09 415.65 C68.09 415 67.58 414.42 66.85 414.42 L53.05 414.42 C52.4 414.42 51.81
							 414.93 51.81 415.65 L51.81 428.01 C51.81 428.73 52.32 429.24 53.05 429.24 ZM33.65 429.24 L47.45 429.24
							 C48.1 429.24 48.69 428.73 48.69 428.01 L48.69 415.65 C48.69 415 48.18 414.42 47.45 414.42 L33.65 414.42
							 C33 414.42 32.41 414.93 32.41 415.65 L32.41 428.01 C32.49 428.73 33 429.24 33.65 429.24 ZM14.62 429.24
							 L28.42 429.24 C29.07 429.24 29.66 428.73 29.66 428.01 L29.66 415.65 C29.66 415 29.15 414.42 28.42 414.42
							 L14.62 414.42 C13.97 414.42 13.38 414.93 13.38 415.65 L13.38 428.01 C13.46 428.73 13.97 429.24 14.62
							 429.24 Z" class="st11"/>
			</g>
		</g>
		<g id="shape315-58" v:mID="315" v:groupContext="shape" transform="translate(559.432,-18.375)">
			<title>工作表.315</title>
			<desc>Docker</desc>
			<v:textBlock v:margins="rect(4,4,4,4)" v:tabSpace="42.5197"/>
			<v:textRect cx="92.2284" cy="467.618" width="184.46" height="47.5963"/>
			<rect x="0" y="443.82" width="184.457" height="47.5963" class="st1"/>
			<text x="51.54" y="474.82" class="st2" v:langID="2052"><v:paragraph v:horizAlign="1"/><v:tabList/>Docker</text>		</g>
		<g id="group376-61" transform="translate(430.455,-295.876)" v:mID="376" v:groupContext="group">
			<title>工作表.376</title>
			<g id="shape277-62" v:mID="277" v:groupContext="shape" transform="translate(159.307,-43.937) scale(-1,1)">
				<title>普通箭头</title>
				<v:userDefs>
					<v:ud v:nameU="visVersion" v:val="VT0(15):26"/>
					<v:ud v:nameU="ArrowType" v:prompt="" v:val="VT0(2):26"/>
				</v:userDefs>
				<path d="M0 491.42 L11.34 480.08 L11.34 485.75 L130.08 485.75 L130.08 491.42 L130.08 497.09 L11.34 497.09 L11.34
							 502.75 L0 491.42 Z" class="st9"/>
			</g>
			<g id="shape278-64" v:mID="278" v:groupContext="shape">
				<title>工作表.278</title>
				<desc>HTTP Request</desc>
				<v:textBlock v:margins="rect(4,4,4,4)" v:tabSpace="42.5197"/>
				<v:textRect cx="92.2284" cy="467.618" width="184.46" height="47.5963"/>
				<rect x="0" y="443.82" width="184.457" height="47.5963" class="st1"/>
				<text x="51.22" y="471.22" class="st10" v:langID="2052"><v:paragraph v:horizAlign="1"/><v:tabList/>HTTP Request</text>			</g>
			<g id="shape282-67" v:mID="282" v:groupContext="shape" transform="translate(75.4016,-45.9742)">
				<title>工作表.282</title>
				<desc>②</desc>
				<v:textBlock v:margins="rect(4,4,4,4)" v:tabSpace="42.5197"/>
				<v:textRect cx="17.7323" cy="473.611" width="35.47" height="35.6106"/>
				<rect x="0" y="455.806" width="35.4646" height="35.6106" class="st1"/>
				<text x="4" y="479.01" class="st8" v:langID="2052"><v:paragraph/><v:tabList/>②</text>			</g>
		</g>
		<g id="group403-70" transform="translate(303.483,-263.001)" v:mID="403" v:groupContext="group">
			<v:userDefs/>
			<title>the-modern-web/http-2</title>
			<desc>Created with Sketch.</desc>
			<g id="group404-71" v:mID="404" v:groupContext="group">
				<title>www-(1)</title>
				<g id="shape405-72" v:mID="405" v:groupContext="shape" transform="translate(44.6932,-27.0123)">
					<title>Shape</title>
					<path d="M87.71 458.98 L87.71 445.47 L76.9 434.66 L76.9 423.85 L82.31 418.45 L82.31 402.24 L68.8 388.73 L55.29
								 388.73 L44.48 377.92 L44.48 361.76 C36.48 362.09 28.62 363.9 21.29 367.11 L22.86 367.11 L30.97 375.22
								 L30.97 386.02 L20.16 396.83 L20.16 407.64 L9.35 418.45 L1.24 418.45 L1.24 426.56 L12.05 437.36 L14.75
								 440.07 L14.75 448.17 L9.21 453.71 L6.65 456.28 L6.65 464.39 L2.35 468.68 L0 471.03 C9.32 480.89
								 21.49 487.59 34.8 490.19 C38.88 491.01 43.02 491.42 47.18 491.41 L47.18 480.6 L41.77 475.19 L41.77
								 464.39 L30.97 464.39 L25.56 458.98 L25.56 450.88 L30.97 445.47 L36.37 440.07 L57.99 440.07 L71.5
								 453.58 L71.5 464.39 L66.09 469.79 L66.09 480.6 L57.99 488.71 L57.99 490.49 C73.21 487.93 87.01 480.02
								 96.9 468.17 L87.71 458.98 Z" class="st12"/>
				</g>
				<g id="shape406-74" v:mID="406" v:groupContext="shape" transform="translate(0,-10.8085)">
					<title>工作表.406</title>
					<path d="M79.5 473.99 L75.66 464.39 L56.07 464.39 L10.81 464.39 L0 491.42 L29.72 491.42 L56.74 491.42 L86.47
								 491.42 L79.5 473.99 Z" class="st13"/>
				</g>
				<g id="shape407-76" v:mID="407" v:groupContext="shape" transform="translate(70.2554,-27.0116)">
					<title>工作表.407</title>
					<path d="M32.43 440.07 L10.81 440.07 L8.11 442.77 L5.4 445.47 L0 450.87 L0 458.98 L5.4 464.39 L16.21 464.39 L16.21
								 475.19 L21.62 480.6 L21.62 491.41 C25.24 491.42 28.86 491.11 32.43 490.49 L32.43 488.7 L40.53 480.6
								 L40.53 469.79 L45.94 464.39 L45.94 453.58 L32.43 440.07 Z" class="st14"/>
				</g>
				<g id="shape408-78" v:mID="408" v:groupContext="shape" transform="translate(27.0162,-47.3954)">
					<title>工作表.408</title>
					<path d="M40.54 387.49 L38.97 387.49 C15.3 397.78 0 421.13 0.01 446.94 C0.02 456.24 2.02 465.43 5.9 473.88 C7
								 476.35 8.27 478.74 9.71 481.04 C11.15 483.4 12.76 485.66 14.52 487.8 C15.52 489.04 16.57 490.25
								 17.68 491.42 L20.03 489.07 L24.32 484.77 L24.32 476.66 L26.89 474.1 L32.43 468.56 L32.43 460.45
								 L29.73 457.75 L18.92 446.94 L18.92 438.83 L27.03 438.83 L37.83 428.02 L37.83 417.22 L48.64 406.41
								 L48.64 395.6 L40.54 387.49 Z" class="st14"/>
				</g>
				<g id="shape409-80" v:mID="409" v:groupContext="shape">
					<title>工作表.409</title>
					<path d="M86.47 480.61 L86.47 488.71 C86.47 490.21 85.26 491.42 83.77 491.42 L2.7 491.42 C1.21 491.42 0 490.21
								 0 488.71 L0 480.61 L86.47 480.61 Z" class="st15"/>
				</g>
				<g id="shape410-82" v:mID="410" v:groupContext="shape" transform="translate(29.7234,-10.8085)">
					<title>工作表.410</title>
					<path d="M24.32 480.61 L27.02 491.42 L0 491.42 L2.7 480.61 L24.32 480.61 Z" class="st16"/>
				</g>
				<g id="shape411-84" v:mID="411" v:groupContext="shape" transform="translate(10.8085,-37.8298)">
					<title>工作表.411</title>
					<path d="M64.85 453.59 L64.85 491.42 L0 491.42 L0 453.59 C0.01 450.61 2.42 448.19 5.4 448.18 L59.45 448.18 C60.94
								 448.19 62.37 448.82 63.39 449.91 C64.34 450.9 64.86 452.22 64.85 453.59 Z" class="st15"/>
				</g>
				<g id="shape412-86" v:mID="412" v:groupContext="shape" transform="translate(91.8725,-94.5746)">
					<title>工作表.412</title>
					<path d="M16.21 477.91 L16.21 486.01 L10.81 491.42 L5.4 491.42 L5.4 480.61 L0 475.2 L0 469.8 L16.21 469.8 L16.21
								 477.91 Z" class="st14"/>
				</g>
				<g id="shape413-88" v:mID="413" v:groupContext="shape" transform="translate(89.1703,-50.2596)">
					<title>工作表.413</title>
					<path d="M67.55 449.8 C67.57 465.02 62.21 479.76 52.42 491.42 L43.23 482.23 L43.23 468.72 L32.43 457.91 L32.43
								 447.1 L37.83 441.7 L37.83 425.48 L24.32 411.97 L10.81 411.97 L0 401.17 L0 385.01 C0.89 384.98 1.78
								 384.95 2.7 384.95 C38.51 384.96 67.54 413.99 67.55 449.8 Z" class="st14"/>
				</g>
				<g id="shape414-90" v:mID="414" v:groupContext="shape" transform="translate(32.966,-37.8298)">
					<title>工作表.414</title>
					<path d="M42.69 453.59 L42.69 491.42 L0 491.42 C15.8 479.78 29.71 465.78 41.23 449.91 C42.18 450.9 42.71 452.22
								 42.69 453.59 Z" class="st17"/>
				</g>
				<g id="group415-92" transform="translate(26.0377,-47.8466)" v:mID="415" v:groupContext="group">
					<title>Group</title>
					<g id="shape416-93" v:mID="416" v:groupContext="shape" transform="translate(11.4624,5.68434E-14)">
						<title>Shape</title>
						<path d="M7.64 491.42 C6.58 490.39 4.89 490.39 3.82 491.42 L0 487.6 C3.21 484.53 8.26 484.53 11.47 487.6
									 L7.64 491.42 Z" class="st18"/>
					</g>
					<g id="shape417-95" v:mID="417" v:groupContext="shape" transform="translate(5.73122,-5.73392)">
						<title>工作表.417</title>
						<path d="M19.11 491.42 C14.88 487.2 8.05 487.2 3.82 491.42 L0 487.6 C6.34 481.27 16.59 481.27 22.93 487.6
									 L19.11 491.42 Z" class="st18"/>
					</g>
					<g id="shape418-97" v:mID="418" v:groupContext="shape" transform="translate(0,-11.4651)">
						<title>工作表.418</title>
						<path d="M30.57 491.42 C27.02 487.87 22.21 485.88 17.2 485.88 C12.18 485.88 7.37 487.87 3.82 491.42 L0 487.6
									 C4.56 483.03 10.75 480.47 17.2 480.47 C23.65 480.47 29.83 483.03 34.39 487.6 L30.57 491.42 Z"
								class="st18"/>
					</g>
				</g>
			</g>
		</g>
		<g id="group419-99" transform="translate(590.329,-254.774)" v:mID="419" v:groupContext="group">
			<title>工作表.419</title>
			<g id="shape420-100" v:mID="420" v:groupContext="shape">
				<title>工作表.420</title>
				<path d="M108.94 334.69 L4.45 334.69 C1.99 334.69 0 336.58 0 338.9 L0 487.2 C0 489.53 1.99 491.42 4.45 491.42 L108.94
							 491.42 C111.39 491.42 113.39 489.53 113.39 487.2 L113.39 338.9 C113.39 336.58 111.39 334.69 108.94 334.69
							 Z" class="st19"/>
			</g>
			<g id="shape421-102" v:mID="421" v:groupContext="shape" transform="translate(13.7646,-66.3033)">
				<title>工作表.421</title>
				<path d="M7.9 491.42 L77.95 491.42 C82.31 491.42 85.86 488.06 85.86 483.93 L85.86 401 L82.85 401 L82.85 483.93 C82.85
							 486.49 80.65 488.57 77.95 488.57 L7.9 488.57 C5.2 488.57 3.01 486.49 3.01 483.93 L3.01 401 L0 401 L0
							 483.93 C0 488.06 3.54 491.42 7.9 491.42 Z" class="st20"/>
			</g>
			<g id="shape422-104" v:mID="422" v:groupContext="shape" transform="translate(48.0584,-40.9799)">
				<title>工作表.422</title>
				<ellipse cx="7.35862" cy="484.449" rx="7.35862" ry="6.96762" class="st21"/>
			</g>
			<g id="shape423-106" v:mID="423" v:groupContext="shape" transform="translate(52.8065,-33.0359)">
				<title>工作表.423</title>
				<ellipse cx="2.61047" cy="488.944" rx="2.61047" ry="2.47176" class="st22"/>
			</g>
			<g id="shape424-108" v:mID="424" v:groupContext="shape" transform="translate(21.3306,-124.966)">
				<title>工作表.424</title>
				<rect x="0" y="468.638" width="70.7421" height="22.7787" class="st23"/>
			</g>
			<g id="shape425-110" v:mID="425" v:groupContext="shape" transform="translate(22.8272,-126.385)">
				<title>工作表.425</title>
				<rect x="0" y="471.486" width="67.7248" height="19.93" class="st20"/>
			</g>
			<g id="shape426-112" v:mID="426" v:groupContext="shape" transform="translate(21.3202,-90.8785)">
				<title>工作表.426</title>
				<rect x="0" y="468.639" width="70.7421" height="22.7771" class="st23"/>
			</g>
			<g id="shape427-114" v:mID="427" v:groupContext="shape" transform="translate(22.8272,-92.2907)">
				<title>工作表.427</title>
				<rect x="0" y="471.486" width="67.7248" height="19.93" class="st20"/>
			</g>
			<g id="shape428-116" v:mID="428" v:groupContext="shape" transform="translate(75.2397,-116.768)">
				<title>工作表.428</title>
				<path d="M11.69 486.8 L0.67 486.8 C0.3 486.8 0 487.08 0 487.43 L0 490.78 C0 491.13 0.3 491.42 0.67 491.42 L11.69
							 491.42 C12.06 491.42 12.36 491.13 12.36 490.78 L12.36 487.43 C12.36 487.08 12.06 486.8 11.69 486.8 Z"
						class="st24"/>
			</g>
			<g id="shape429-118" v:mID="429" v:groupContext="shape" transform="translate(75.2397,-118.031)">
				<title>工作表.429</title>
				<path d="M11.69 486.8 L0.67 486.8 C0.3 486.8 0 487.08 0 487.43 L0 490.78 C0 491.13 0.3 491.42 0.67 491.42 L11.69
							 491.42 C12.06 491.42 12.36 491.13 12.36 490.78 L12.36 487.43 C12.36 487.08 12.06 486.8 11.69 486.8 Z"
						class="st21"/>
			</g>
			<g id="shape430-120" v:mID="430" v:groupContext="shape" transform="translate(75.2397,-82.5736)">
				<title>工作表.430</title>
				<path d="M11.69 486.8 L0.67 486.8 C0.3 486.8 0 487.08 0 487.43 L0 490.78 C0 491.13 0.3 491.42 0.67 491.42 L11.69
							 491.42 C12.06 491.42 12.36 491.13 12.36 490.78 L12.36 487.43 C12.36 487.08 12.06 486.8 11.69 486.8 Z"
						class="st24"/>
			</g>
			<g id="shape431-122" v:mID="431" v:groupContext="shape" transform="translate(75.2397,-83.8369)">
				<title>工作表.431</title>
				<path d="M11.69 486.8 L0.67 486.8 C0.3 486.8 0 487.08 0 487.43 L0 490.78 C0 491.13 0.3 491.42 0.67 491.42 L11.69
							 491.42 C12.06 491.42 12.36 491.13 12.36 490.78 L12.36 487.43 C12.36 487.08 12.06 486.8 11.69 486.8 Z"
						class="st21"/>
			</g>
		</g>
		<g id="group432-124" transform="translate(329.323,-72.8079)" v:mID="432" v:groupContext="group">
			<title>工作表.432</title>
			<g id="shape433-125" v:mID="433" v:groupContext="shape" transform="translate(35.451,5.68434E-14)">
				<title>工作表.433</title>
				<rect x="0" y="488.689" width="59.994" height="2.727" class="st25"/>
			</g>
			<g id="shape434-127" v:mID="434" v:groupContext="shape" transform="translate(46.359,-2.727)">
				<title>工作表.434</title>
				<path d="M38.18 491.42 L0 491.42 L2.73 472.33 L35.45 472.33 L38.18 491.42 Z" class="st26"/>
			</g>
			<g id="shape435-129" v:mID="435" v:groupContext="shape" transform="translate(0,-21.816)">
				<title>工作表.435</title>
				<path d="M130.9 477.78 L130.9 488.69 C130.9 490.19 129.67 491.42 128.17 491.42 L2.73 491.42 C1.23 491.42 0 490.19
							 0 488.69 L0 477.78 L130.9 477.78 Z" class="st25"/>
			</g>
			<g id="shape436-131" v:mID="436" v:groupContext="shape" transform="translate(5.454,-40.905)">
				<title>SVGCleanerId_0</title>
				<rect x="0" y="415.06" width="119.988" height="76.356" class="st27"/>
			</g>
			<g id="shape437-133" v:mID="437" v:groupContext="shape" transform="translate(0,-35.451)">
				<title>工作表.437</title>
				<path d="M128.17 404.15 L2.73 404.15 C1.23 404.15 0 405.38 0 406.88 L0 491.42 L130.9 491.42 L130.9 406.88 C130.9
							 405.38 129.67 404.15 128.17 404.15 ZM125.44 485.96 L5.45 485.96 L5.45 409.61 L125.44 409.61 L125.44
							 485.96 L125.44 485.96 Z" class="st28"/>
			</g>
			<g id="shape438-135" v:mID="438" v:groupContext="shape" transform="translate(5.454,-40.905)">
				<title>SVGCleanerId_0_1_</title>
				<rect x="0" y="415.06" width="119.988" height="76.356" class="st27"/>
			</g>
			<g id="shape439-137" v:mID="439" v:groupContext="shape" transform="translate(24.543,-76.356)">
				<title>工作表.439</title>
				<rect x="0" y="458.692" width="81.81" height="32.724" class="st29"/>
			</g>
			<g id="group440-139" transform="translate(24.543,-49.086)" v:mID="440" v:groupContext="group">
				<title>工作表.440</title>
				<g id="shape441-140" v:mID="441" v:groupContext="shape" transform="translate(0,-16.362)">
					<title>工作表.441</title>
					<rect x="0" y="488.689" width="81.81" height="2.727" class="st25"/>
				</g>
				<g id="shape442-142" v:mID="442" v:groupContext="shape" transform="translate(0,-8.181)">
					<title>工作表.442</title>
					<rect x="0" y="488.689" width="81.81" height="2.727" class="st25"/>
				</g>
				<g id="shape443-144" v:mID="443" v:groupContext="shape">
					<title>工作表.443</title>
					<rect x="0" y="488.689" width="81.81" height="2.727" class="st25"/>
				</g>
			</g>
		</g>
	</g>
</svg>
